ffmpeg version 2.8.15-0ubuntu0.16.04.1 Copyright (c) 2000-2018 the FFmpeg developers
  built with gcc 5.4.0 (Ubuntu 5.4.0-6ubuntu1~16.04.10) 20160609
  configuration: --prefix=/usr --extra-version=0ubuntu0.16.04.1 --build-suffix=-ffmpeg --toolchain=hardened --libdir=/usr/lib/x86_64-linux-gnu --incdir=/usr/include/x86_64-linux-gnu --cc=cc --cxx=g++ --enable-gpl --enable-shared --disable-stripping --disable-decoder=libopenjpeg --disable-decoder=libschroedinger --enable-avresample --enable-avisynth --enable-gnutls --enable-ladspa --enable-libass --enable-libbluray --enable-libbs2b --enable-libcaca --enable-libcdio --enable-libflite --enable-libfontconfig --enable-libfreetype --enable-libfribidi --enable-libgme --enable-libgsm --enable-libmodplug --enable-libmp3lame --enable-libopenjpeg --enable-libopus --enable-libpulse --enable-librtmp --enable-libschroedinger --enable-libshine --enable-libsnappy --enable-libsoxr --enable-libspeex --enable-libssh --enable-libtheora --enable-libtwolame --enable-libvorbis --enable-libvpx --enable-libwavpack --enable-libwebp --enable-libx265 --enable-libxvid --enable-libzvbi --enable-openal --enable-opengl --enable-x11grab --enable-libdc1394 --enable-libiec61883 --enable-libzmq --enable-frei0r --enable-libx264 --enable-libopencv
  libavutil      54. 31.100 / 54. 31.100
  libavcodec     56. 60.100 / 56. 60.100
  libavformat    56. 40.101 / 56. 40.101
  libavdevice    56.  4.100 / 56.  4.100
  libavfilter     5. 40.101 /  5. 40.101
  libavresample   2.  1.  0 /  2.  1.  0
  libswscale      3.  1.101 /  3.  1.101
  libswresample   1.  2.101 /  1.  2.101
  libpostproc    53.  3.100 / 53.  3.100
Input #0, image2pipe, from 'pipe:':
  Duration: N/A, bitrate: N/A
    Stream #0:0: Video: ppm, rgb24, 512x512, 12 fps, 12 tbr, 12 tbn, 12 tbc
[libx264 @ 0x2715c00] using cpu capabilities: MMX2 SSE2Fast SSSE3 SSE4.2 AVX
[libx264 @ 0x2715c00] profile High, level 2.2
[libx264 @ 0x2715c00] 264 - core 148 r2643 5c65704 - H.264/MPEG-4 AVC codec - Copyleft 2003-2015 - http://www.videolan.org/x264.html - options: cabac=1 ref=3 deblock=1:0:0 analyse=0x3:0x113 me=hex subme=7 psy=1 psy_rd=1.00:0.00 mixed_ref=1 me_range=16 chroma_me=1 trellis=1 8x8dct=1 cqm=0 deadzone=21,11 fast_pskip=1 chroma_qp_offset=-2 threads=12 lookahead_threads=2 sliced_threads=0 nr=0 decimate=1 interlaced=0 bluray_compat=0 constrained_intra=0 bframes=3 b_pyramid=2 b_adapt=1 b_bias=0 direct=1 weightb=1 open_gop=0 weightp=2 keyint=250 keyint_min=12 scenecut=40 intra_refresh=0 rc_lookahead=40 rc=abr mbtree=1 bitrate=400 ratetol=1.0 qcomp=0.60 qpmin=0 qpmax=69 qpstep=4 ip_ratio=1.40 aq=1:1.00
Output #0, mp4, to './mission_records/9b3c544a-1298-4d0f-a3a8-6b1d788cdfda/video.mp4':
  Metadata:
    encoder         : Lavf56.40.101
    Stream #0:0: Video: h264 (libx264) ([33][0][0][0] / 0x0021), yuv420p, 512x512, q=-1--1, 400 kb/s, 12 fps, 12288 tbn, 12 tbc
    Metadata:
      encoder         : Lavc56.60.100 libx264
Stream mapping:
  Stream #0:0 -> #0:0 (ppm (native) -> h264 (libx264))
frame=   14 fps=0.0 q=0.0 size=       0kB time=00:00:00.00 bitrate=N/A    frame=   20 fps= 18 q=0.0 size=       0kB time=00:00:00.00 bitrate=N/A    frame=   26 fps= 15 q=0.0 size=       0kB time=00:00:00.00 bitrate=N/A    frame=   32 fps= 14 q=0.0 size=       0kB time=00:00:00.00 bitrate=N/A    frame=   38 fps= 14 q=0.0 size=       0kB time=00:00:00.00 bitrate=N/A    frame=   44 fps= 13 q=0.0 size=       0kB time=00:00:00.00 bitrate=N/A    frame=   50 fps= 13 q=0.0 size=       0kB time=00:00:00.00 bitrate=N/A    frame=   56 fps= 13 q=0.0 size=       0kB time=00:00:00.00 bitrate=N/A    frame=   62 fps= 12 q=36.0 size=      94kB time=00:00:00.33 bitrate=2298.2kbits/s    frame=   68 fps= 12 q=43.0 size=     162kB time=00:00:00.83 bitrate=1589.0kbits/s    frame=   74 fps= 12 q=42.0 size=     202kB time=00:00:01.33 bitrate=1242.8kbits/s    frame=   80 fps= 12 q=40.0 size=     208kB time=00:00:01.83 bitrate= 930.2kbits/s    frame=   86 fps= 12 q=36.0 size=     221kB time=00:00:02.33 bitrate= 774.6kbits/s    frame=   92 fps= 12 q=40.0 size=     242kB time=00:00:02.83 bitrate= 698.8kbits/s    frame=   98 fps= 12 q=36.0 size=     268kB time=00:00:03.33 bitrate= 657.8kbits/s    frame=  104 fps= 12 q=38.0 size=     274kB time=00:00:03.83 bitrate= 586.4kbits/s    frame=  110 fps= 12 q=37.0 size=     289kB time=00:00:04.33 bitrate= 546.4kbits/s    frame=  116 fps= 12 q=37.0 size=     292kB time=00:00:04.83 bitrate= 494.6kbits/s    frame=  122 fps= 12 q=36.0 size=     313kB time=00:00:05.33 bitrate= 480.8kbits/s    frame=  128 fps= 12 q=36.0 size=     332kB time=00:00:05.83 bitrate= 465.6kbits/s    frame=  134 fps= 12 q=36.0 size=     354kB time=00:00:06.33 bitrate= 457.6kbits/s    frame=  140 fps= 12 q=35.0 size=     369kB time=00:00:06.83 bitrate= 442.8kbits/s    frame=  146 fps= 11 q=35.0 size=     397kB time=00:00:07.33 bitrate= 444.0kbits/s    frame=  152 fps= 11 q=36.0 size=     424kB time=00:00:07.83 bitrate= 443.1kbits/s    frame=  158 fps= 11 q=35.0 size=     440kB time=00:00:08.33 bitrate= 432.3kbits/s    frame=  164 fps= 11 q=35.0 size=     470kB time=00:00:08.83 bitrate= 435.8kbits/s    frame=  170 fps= 11 q=33.0 size=     501kB time=00:00:09.33 bitrate= 439.8kbits/s    frame=  176 fps= 11 q=36.0 size=     519kB time=00:00:09.83 bitrate= 432.5kbits/s    frame=  182 fps= 11 q=35.0 size=     536kB time=00:00:10.33 bitrate= 425.1kbits/s    frame=  188 fps= 11 q=35.0 size=     568kB time=00:00:10.83 bitrate= 429.8kbits/s    frame=  189 fps= 11 q=-1.0 Lsize=     830kB time=00:00:15.58 bitrate= 436.2kbits/s    
video:828kB audio:0kB subtitle:0kB other streams:0kB global headers:0kB muxing overhead: 0.242307%
[libx264 @ 0x2715c00] frame I:16    Avg QP:30.65  size: 10947
[libx264 @ 0x2715c00] frame P:147   Avg QP:34.16  size:  4461
[libx264 @ 0x2715c00] frame B:26    Avg QP:35.66  size:   616
[libx264 @ 0x2715c00] consecutive B-frames: 77.8% 10.6%  3.2%  8.5%
[libx264 @ 0x2715c00] mb I  I16..4:  6.6% 60.6% 32.8%
[libx264 @ 0x2715c00] mb P  I16..4:  8.1% 41.8% 10.9%  P16..4: 19.3%  4.7%  1.7%  0.0%  0.0%    skip:13.5%
[libx264 @ 0x2715c00] mb B  I16..4:  1.1%  2.1%  0.4%  B16..8: 15.9%  1.7%  0.1%  direct: 0.8%  skip:77.8%  L0:46.9% L1:52.5% BI: 0.6%
[libx264 @ 0x2715c00] final ratefactor: 32.58
[libx264 @ 0x2715c00] 8x8 transform intra:67.5% inter:76.9%
[libx264 @ 0x2715c00] coded y,uvDC,uvAC intra: 40.6% 32.3% 11.1% inter: 11.7% 5.9% 0.5%
[libx264 @ 0x2715c00] i16 v,h,dc,p: 41% 37% 14%  7%
[libx264 @ 0x2715c00] i8 v,h,dc,ddl,ddr,vr,hd,vl,hu: 29% 15% 25%  5%  5%  5%  6%  4%  6%
[libx264 @ 0x2715c00] i4 v,h,dc,ddl,ddr,vr,hd,vl,hu: 37% 24% 16%  4%  4%  4%  5%  3%  3%
[libx264 @ 0x2715c00] i8c dc,h,v,p: 76% 11% 12%  1%
[libx264 @ 0x2715c00] Weighted P-Frames: Y:4.8% UV:3.4%
[libx264 @ 0x2715c00] ref P L0: 65.2%  9.6% 14.5% 10.5%  0.3%
[libx264 @ 0x2715c00] ref B L0: 79.7% 20.2%  0.2%
[libx264 @ 0x2715c00] ref B L1: 99.6%  0.4%
[libx264 @ 0x2715c00] kb/s:430.21
Exiting normally, received signal 2.
